M48
INCH
T01C0.0150
T02C0.0300
T03C0.0360
T04C0.0910
T05C0.0400
T06C0.0380
T07C0.0250
T08C0.1574
%
T01
X-004627Y-021702
X-000877Y-009702
X-001377Y-019452
X+004372Y-019452
X+005872Y+011047
X-005627Y+001297
X-004627Y-000202
X+000872Y+006297
X-013877Y+012797
X-016877Y+012297
X+007872Y+015547
X-020377Y+016297
X-023377Y+002797
X-020877Y+016797
X-022877Y+013797
X-014877Y+013797
X-014377Y+005047
X-018377Y-007452
X+020122Y-016202
X+003122Y+012797
X+018872Y+003047
X-017627Y+008297
X+001622Y+008297
T02
X+004964Y-012336
X+004964Y-013336
X+004964Y-014336
X+004964Y-015336
X+004964Y-016336
X+004964Y-017336
X+004964Y-018336
X+004964Y-019336
X+004964Y-020336
X+004964Y-021336
X+004964Y-022336
X+004964Y-023336
X+007964Y-023336
X+007964Y-022336
X+007964Y-021336
X+007964Y-020336
X+007964Y-019336
X+007964Y-018336
X+007964Y-017336
X+007964Y-016336
X+007964Y-015336
X+007964Y-014336
X+007964Y-013336
X+007964Y-012336
X+013429Y-005070
X+013429Y-006070
X+013429Y-007070
X+013429Y-008070
X+013429Y-009070
X+013429Y-010070
X+013429Y-011070
X+013429Y-012070
X+013429Y-013070
X+013429Y-014070
X+013429Y-015070
X+013429Y-016070
X+013429Y-017070
X+013429Y-018070
X+013429Y-019070
X+013429Y-020070
X+013429Y-021070
X+013429Y-022070
X+013429Y-023070
X+013429Y-024070
X+019429Y-024070
X+019429Y-023070
X+019429Y-022070
X+019429Y-021070
X+019429Y-020070
X+019429Y-019070
X+019429Y-018070
X+019429Y-017070
X+019429Y-016070
X+019429Y-015070
X+019429Y-014070
X+019429Y-013070
X+019429Y-012070
X+019429Y-011070
X+019429Y-010070
X+019429Y-009070
X+019429Y-008070
X+019429Y-007070
X+019429Y-006070
X+019429Y-005070
X+010907Y-017892
X+010907Y-021892
X+004964Y+007311
X+004964Y+006311
X+004964Y+005311
X+004964Y+004311
X+004964Y+003311
X+004964Y+002311
X+004964Y+001311
X+004964Y+000311
X+004964Y-000688
X+004964Y-001688
X+004964Y-002688
X+004964Y-003688
X+007964Y-003688
X+007964Y-002688
X+007964Y-001688
X+007964Y-000688
X+007964Y+000311
X+007964Y+001311
X+007964Y+002311
X+007964Y+003311
X+007964Y+004311
X+007964Y+005311
X+007964Y+006311
X+007964Y+007311
X-023346Y+015669
X-022346Y+015669
X-021346Y+015669
X-020346Y+015669
X-019346Y+015669
X-018346Y+015669
X-017346Y+015669
X-016346Y+015669
X-015346Y+015669
X-014346Y+015669
X-013346Y+015669
X-012346Y+015669
X-012346Y+018669
X-013346Y+018669
X-014346Y+018669
X-015346Y+018669
X-016346Y+018669
X-017346Y+018669
X-018346Y+018669
X-019346Y+018669
X-020346Y+018669
X-021346Y+018669
X-022346Y+018669
X-023346Y+018669
X+012287Y+007318
X+012287Y+003318
X-020511Y+021220
X-016511Y+021220
X+009907Y-023799
X+011907Y-023799
X-009149Y-025343
X-008125Y-025343
X-007141Y-025343
X-006118Y-025343
X-005133Y-025343
X-004110Y-025343
X-004149Y-019319
X-005173Y-019319
X-006157Y-019319
X-007141Y-019319
X-008165Y-019319
X-009149Y-019319
X-009149Y-014807
X-008125Y-014807
X-007141Y-014807
X-006118Y-014807
X-005133Y-014807
X-004110Y-014807
X-004149Y-008783
X-005173Y-008783
X-006157Y-008783
X-007141Y-008783
X-008165Y-008783
X-009149Y-008783
X-009149Y-004280
X-008125Y-004280
X-007141Y-004280
X-006118Y-004280
X-005133Y-004280
X-004110Y-004280
X-004149Y+001743
X-005173Y+001743
X-006157Y+001743
X-007141Y+001743
X-008165Y+001743
X-009149Y+001743
X-009149Y+006216
X-008125Y+006216
X-007141Y+006216
X-006118Y+006216
X-005133Y+006216
X-004110Y+006216
X-004149Y+012240
X-005173Y+012240
X-006157Y+012240
X-007141Y+012240
X-008165Y+012240
X-009149Y+012240
X+007874Y+016767
X+008897Y+016767
X+009881Y+016767
X+010905Y+016767
X+011889Y+016767
X+012913Y+016767
X+012874Y+022791
X+011850Y+022791
X+010866Y+022791
X+009881Y+022791
X+008858Y+022791
X+007874Y+022791
X-020314Y+012189
X-019314Y+012189
X-020354Y+006205
X-021314Y+012189
X-021354Y+006205
X-022354Y+006205
X-019354Y+006205
X-023354Y+006205
X-022314Y+012189
X-023314Y+012189
X-020314Y+001692
X-019314Y+001692
X-020354Y-004291
X-021314Y+001692
X-021354Y-004291
X-022354Y-004291
X-019354Y-004291
X-023354Y-004291
X-022314Y+001692
X-023314Y+001692
X-020314Y-008833
X-019314Y-008833
X-020354Y-014817
X-021314Y-008833
X-021354Y-014817
X-022354Y-014817
X-019354Y-014817
X-023354Y-014817
X-022314Y-008833
X-023314Y-008833
X-020314Y-019370
X-019314Y-019370
X-020354Y-025354
X-021314Y-019370
X-021354Y-025354
X-022354Y-025354
X-019354Y-025354
X-023354Y-025354
X-022314Y-019370
X-023314Y-019370
X+010907Y-009285
X+010907Y-007285
X+009907Y-011852
X+011907Y-011852
X+024770Y-012272
X+024770Y-008272
X+011772Y-000742
X+015772Y-000742
X+017502Y-000742
X+021502Y-000742
X+021497Y-012272
X+021497Y-008272
X+015792Y+001827
X+017792Y+001827
X+024986Y-006987
X+020986Y-006987
X+009907Y-005152
X+011907Y-005152
X+023086Y-012272
X+023086Y-008272
X+011919Y-014574
X+011919Y-016574
X+020997Y-013750
X+022997Y-013750
X+009448Y+005511
X+010448Y+005511
X+001574Y+003937
X+003574Y+003937
X+001181Y-017322
X+003181Y-017322
X+009842Y-016141
X+009842Y-015141
X-017716Y+014173
X-015716Y+014173
X-015354Y+020472
X-014354Y+020472
T03
X+020852Y+007515
X+020852Y+006255
X+021832Y+006255
X+021832Y+007515
T04
X+022712Y+004515
X+022712Y+009255
T05
X+023352Y-005202
X+024352Y-005202
X+022102Y-016771
X+023102Y-016771
X+024102Y-016771
X+022102Y-019771
X+023102Y-019771
X+022102Y-023271
X+023102Y-023271
T06
X+024303Y+012570
X+024303Y+013570
X+024303Y+014570
X+024303Y+015570
X+024303Y+016570
X+024303Y+017570
T07
X+024803Y-002952
X+023031Y-002952
X+024803Y-000433
X+023031Y-000433
T08
X-025196Y-025984
X-025196Y+023228
X+025196Y+023228
X+025196Y-025984
X-007874Y+023228
X-025196Y-002362
X+005118Y-025984
X+025196Y-014029
X+025196Y+002362
M30
